<svg width="25" height="18" viewBox="0 0 25 18" fill="none" xmlns="http://www.w3.org/2000/svg">
<path d="M18.2552 13.5102C18.0492 13.5102 17.8478 13.4332 17.6765 13.289C17.5052 13.1447 17.3717 12.9398 17.2928 12.6999C17.214 12.4601 17.1934 12.1962 17.2336 11.9416C17.2738 11.687 17.373 11.4531 17.5186 11.2696C17.6643 11.086 17.8499 10.961 18.052 10.9104C18.2541 10.8597 18.4635 10.8857 18.6538 10.9851C18.8442 11.0844 19.0069 11.2526 19.1213 11.4685C19.2358 11.6843 19.2969 11.9381 19.2969 12.1977C19.2969 12.5458 19.1871 12.8796 18.9918 13.1257C18.7964 13.3719 18.5315 13.5102 18.2552 13.5102ZM6.74913 13.5102C6.54311 13.5102 6.34171 13.4332 6.17041 13.289C5.99911 13.1447 5.8656 12.9398 5.78676 12.6999C5.70792 12.4601 5.68729 12.1962 5.72748 11.9416C5.76767 11.687 5.86688 11.4531 6.01256 11.2696C6.15824 11.086 6.34385 10.961 6.54591 10.9104C6.74798 10.8597 6.95742 10.8857 7.14776 10.9851C7.3381 11.0844 7.50079 11.2526 7.61525 11.4685C7.72971 11.6843 7.7908 11.9381 7.7908 12.1977C7.7908 12.5458 7.68105 12.8796 7.4857 13.1257C7.29035 13.3719 7.0254 13.5102 6.74913 13.5102ZM18.6285 5.60781L20.7075 1.06875C20.7389 1.00651 20.76 0.936903 20.7695 0.864125C20.779 0.791346 20.7767 0.716899 20.7627 0.64526C20.7488 0.573622 20.7235 0.506273 20.6884 0.447265C20.6533 0.388258 20.6091 0.338812 20.5584 0.301901C20.5077 0.26499 20.4516 0.241377 20.3935 0.232483C20.3354 0.223589 20.2765 0.229598 20.2203 0.250148C20.164 0.270698 20.1117 0.305365 20.0664 0.352063C20.0211 0.39876 19.9837 0.456524 19.9566 0.521878L17.8516 5.1211C16.1684 4.16995 14.3447 3.67822 12.5 3.67822C10.6553 3.67822 8.83156 4.16995 7.14844 5.1211L5.0434 0.527347C5.01627 0.461992 4.97892 0.404229 4.93361 0.357531C4.8883 0.310834 4.83597 0.276167 4.77975 0.255617C4.72353 0.235067 4.66459 0.229058 4.60648 0.237952C4.54837 0.246846 4.49229 0.270458 4.44161 0.307369C4.39093 0.34428 4.3467 0.393727 4.31158 0.452734C4.27646 0.511742 4.25118 0.57909 4.23725 0.650729C4.22333 0.722368 4.22104 0.796816 4.23054 0.869594C4.24004 0.942373 4.26113 1.01198 4.29253 1.07422L6.37153 5.61328C2.79948 8.05782 0.355903 12.6188 0 18H25C24.6441 12.6133 22.2005 8.05781 18.6241 5.60781" fill="#FAFCFF"/>
</svg>
