<svg width="20" height="24" viewBox="0 0 20 24" fill="none" xmlns="http://www.w3.org/2000/svg">
<path d="M16.599 12.5953C16.5885 10.875 17.4531 9.57656 19.2031 8.62031C18.224 7.35938 16.7448 6.66563 14.7917 6.52969C12.9427 6.39844 10.9219 7.5 10.1823 7.5C9.40104 7.5 7.60937 6.57656 6.20312 6.57656C3.29687 6.61875 0.208333 8.6625 0.208333 12.8203C0.208333 14.0484 0.458333 15.3172 0.958333 16.6266C1.625 18.3469 4.03125 22.5656 6.54167 22.4953C7.85417 22.4672 8.78125 21.6563 10.4896 21.6563C12.1458 21.6563 13.0052 22.4953 14.4687 22.4953C17 22.4625 19.1771 18.6281 19.8125 16.9031C16.4167 15.4641 16.599 12.6844 16.599 12.5953ZM13.651 4.89844C15.0729 3.37969 14.9427 1.99688 14.901 1.5C13.6458 1.56563 12.1927 2.26875 11.3646 3.13594C10.4531 4.06406 9.91667 5.2125 10.0313 6.50625C11.3906 6.6 12.6302 5.97188 13.651 4.89844Z" fill="black"/>
</svg>
