<svg width="20" height="25" viewBox="0 0 20 25" fill="none" xmlns="http://www.w3.org/2000/svg">
<path d="M12 12.5C13.2124 12.5 14.3752 11.9996 15.2325 11.1088C16.0898 10.218 16.5714 9.00978 16.5714 7.75C16.5714 6.49022 16.0898 5.28204 15.2325 4.39124C14.3752 3.50045 13.2124 3 12 3C10.7876 3 9.62482 3.50045 8.76751 4.39124C7.9102 5.28204 7.42857 6.49022 7.42857 7.75C7.42857 9.00978 7.9102 10.218 8.76751 11.1088C9.62482 11.9996 10.7876 12.5 12 12.5ZM10.3679 14.2812C6.85 14.2812 4 17.2426 4 20.8979C4 21.5064 4.475 22 5.06071 22H18.9393C19.525 22 20 21.5064 20 20.8979C20 17.2426 17.15 14.2812 13.6321 14.2812H10.3679Z" fill="black"/>
</svg>
